<?xml version="1.0" encoding="UTF-8"?>
<!DOCTYPE svg PUBLIC "-//W3C//DTD SVG 1.1//EN" "http://www.w3.org/Graphics/SVG/1.1/DTD/svg11.dtd">
<!-- Creator: CorelDRAW 2021 (64-Bit) -->
<svg xmlns="http://www.w3.org/2000/svg" xml:space="preserve" width="381.038mm" height="131.343mm" version="1.1" style="shape-rendering:geometricPrecision; text-rendering:geometricPrecision; image-rendering:optimizeQuality; fill-rule:evenodd; clip-rule:evenodd"
viewBox="0 0 38103.82 13134.34"
 xmlns:xlink="http://www.w3.org/1999/xlink"
 xmlns:xodm="http://www.corel.com/coreldraw/odm/2003">
 <defs>
  <style type="text/css">
   <![CDATA[
    .str0 {stroke:#FFFF99;stroke-width:52.92;stroke-linecap:round;stroke-linejoin:round;stroke-miterlimit:22.9256}
    .fil1 {fill:none;fill-rule:nonzero}
    .fil0 {fill:#07C938;fill-rule:nonzero}
   ]]>
  </style>
 </defs>
 <g id="Layer_x0020_1">
  <metadata id="CorelCorpID_0Corel-Layer"/>
  <g id="_2223205271520">
   <path class="fil0" d="M6619.83 8827.39c-2110.57,0 -3551.93,-2076.25 -3551.93,-4787.39 51.48,-2213.53 703.53,-3174.44 1612.95,-3174.44 755,0 1252.62,669.2 1750.23,2007.62 446.14,1183.98 669.21,1424.2 1252.62,1424.2 1063.87,0 2024.77,-531.93 1904.65,-1578.64 -171.59,-1355.57 -1853.17,-2693.98 -4375.56,-2693.98 -3174.43,0 -5233.53,2247.85 -5233.53,5405.13 0,3157.28 1818.87,5061.94 5130.57,5061.94 1750.23,0 2676.83,-480.46 3431.83,-1149.66 789.31,-686.37 1201.13,-1578.64 1201.13,-2659.67 0,-806.48 -463.3,-1424.2 -1715.91,-1424.2 -1578.64,0 -2711.14,892.27 -1475.68,1818.86 617.73,463.3 1081.02,960.91 1235.46,1269.78 -171.6,205.91 -531.94,480.45 -1166.83,480.45z"/>
   <path id="_1" class="fil1 str0" d="M6619.83 8827.39c-2110.57,0 -3551.93,-2076.25 -3551.93,-4787.39 51.48,-2213.53 703.53,-3174.44 1612.95,-3174.44 755,0 1252.62,669.2 1750.23,2007.62 446.14,1183.98 669.21,1424.2 1252.62,1424.2 1063.87,0 2024.77,-531.93 1904.65,-1578.64 -171.59,-1355.57 -1853.17,-2693.98 -4375.56,-2693.98 -3174.43,0 -5233.53,2247.85 -5233.53,5405.13 0,3157.28 1818.87,5061.94 5130.57,5061.94 1750.23,0 2676.83,-480.46 3431.83,-1149.66 789.31,-686.37 1201.13,-1578.64 1201.13,-2659.67 0,-806.48 -463.3,-1424.2 -1715.91,-1424.2 -1578.64,0 -2711.14,892.27 -1475.68,1818.86 617.73,463.3 1081.02,960.91 1235.46,1269.78 -171.6,205.91 -531.94,480.45 -1166.83,480.45z"/>
   <path class="fil0" d="M10327.81 10841.77l29.8 0c685.46,0 1311.32,-134.11 1579.55,-372.53 223.52,-193.72 342.73,-566.26 14.9,-908.99 -402.34,-447.04 -610.96,-1147.4 -610.96,-1996.78 0,-178.82 0,-372.54 14.9,-536.45 74.51,-759.97 447.04,-1192.11 730.17,-1192.11 298.03,0 447.04,283.13 417.24,849.38 -29.8,521.55 193.72,819.57 640.76,819.57 983.49,0 1773.25,-1013.29 1773.25,-1952.08 0,-759.97 -536.45,-1326.22 -1266.61,-1326.22 -1072.89,0 -1564.64,536.45 -2145.79,1311.32 104.31,-834.47 104.31,-1311.32 -536.45,-1311.32 -894.08,0 -2324.61,536.45 -2473.62,834.48 -163.91,357.63 14.9,536.45 268.23,864.28 432.13,521.55 566.25,804.67 566.25,1639.15 0,819.57 -178.82,1549.74 -610.96,1996.78 -312.93,342.73 -193.72,715.27 29.8,908.99 283.13,238.42 938.78,372.53 1579.54,372.53z"/>
   <path id="_1_0" class="fil1 str0" d="M10327.81 10841.77l29.8 0c685.46,0 1311.32,-134.11 1579.55,-372.53 223.52,-193.72 342.73,-566.26 14.9,-908.99 -402.34,-447.04 -610.96,-1147.4 -610.96,-1996.78 0,-178.82 0,-372.54 14.9,-536.45 74.51,-759.97 447.04,-1192.11 730.17,-1192.11 298.03,0 447.04,283.13 417.24,849.38 -29.8,521.55 193.72,819.57 640.76,819.57 983.49,0 1773.25,-1013.29 1773.25,-1952.08 0,-759.97 -536.45,-1326.22 -1266.61,-1326.22 -1072.89,0 -1564.64,536.45 -2145.79,1311.32 104.31,-834.47 104.31,-1311.32 -536.45,-1311.32 -894.08,0 -2324.61,536.45 -2473.62,834.48 -163.91,357.63 14.9,536.45 268.23,864.28 432.13,521.55 566.25,804.67 566.25,1639.15 0,819.57 -178.82,1549.74 -610.96,1996.78 -312.93,342.73 -193.72,715.27 29.8,908.99 283.13,238.42 938.78,372.53 1579.54,372.53z"/>
   <path class="fil0" d="M17482.95 4225.56c-2294.8,0 -3442.21,1534.84 -3442.21,3308.11 0,1907.37 1117.6,3308.1 3442.21,3308.1 2324.61,0 3442.2,-1400.73 3442.2,-3308.1 0,-1773.27 -1147.39,-3308.11 -3442.2,-3308.11zm0 6020.16c-566.25,0 -968.59,-1013.3 -998.39,-2563.04 -44.71,-1683.86 432.14,-2875.96 998.39,-2875.96 566.25,0 968.59,1013.29 998.39,2577.93 44.7,1683.86 -432.14,2861.07 -998.39,2861.07z"/>
   <path id="_1_1" class="fil1 str0" d="M17482.95 4225.56c-2294.8,0 -3442.21,1534.84 -3442.21,3308.11 0,1907.37 1117.6,3308.1 3442.21,3308.1 2324.61,0 3442.2,-1400.73 3442.2,-3308.1 0,-1773.27 -1147.39,-3308.11 -3442.2,-3308.11zm0 6020.16c-566.25,0 -968.59,-1013.3 -998.39,-2563.04 -44.71,-1683.86 432.14,-2875.96 998.39,-2875.96 566.25,0 968.59,1013.29 998.39,2577.93 44.7,1683.86 -432.14,2861.07 -998.39,2861.07z"/>
   <path class="fil0" d="M20131.3 7980.71c-372.54,1743.46 208.61,2861.06 1698.74,2861.06 1043.1,0 1773.27,-610.96 2220.31,-1281.52 104.31,700.37 342.73,1281.52 908.98,1281.52l29.8 0c774.87,0 1564.64,-670.56 1877.57,-1490.14 119.21,-298.02 134.11,-655.66 -298.03,-789.77 -506.64,-149.01 -610.95,-625.86 -491.74,-1579.54 223.51,-1683.86 491.74,-2741.86 -447.04,-2741.86 -894.08,0 -2205.4,536.45 -2339.51,834.48 -178.82,357.63 14.9,536.45 283.12,864.28 372.54,461.94 417.24,894.08 417.24,1639.15l0 417.24c-104.31,1043.09 -610.96,1937.18 -1251.71,1937.18 -670.57,0 -685.47,-640.76 -566.26,-2354.42 149.02,-2041.49 670.57,-3337.91 -372.53,-3337.91 -938.78,0 -1981.87,432.14 -2160.69,804.68 -149.01,283.12 -14.9,536.45 253.32,864.28 417.24,521.54 417.24,1266.61 238.43,2071.29z"/>
   <path id="_1_2" class="fil1 str0" d="M20131.3 7980.71c-372.54,1743.46 208.61,2861.06 1698.74,2861.06 1043.1,0 1773.27,-610.96 2220.31,-1281.52 104.31,700.37 342.73,1281.52 908.98,1281.52l29.8 0c774.87,0 1564.64,-670.56 1877.57,-1490.14 119.21,-298.02 134.11,-655.66 -298.03,-789.77 -506.64,-149.01 -610.95,-625.86 -491.74,-1579.54 223.51,-1683.86 491.74,-2741.86 -447.04,-2741.86 -894.08,0 -2205.4,536.45 -2339.51,834.48 -178.82,357.63 14.9,536.45 283.12,864.28 372.54,461.94 417.24,894.08 417.24,1639.15l0 417.24c-104.31,1043.09 -610.96,1937.18 -1251.71,1937.18 -670.57,0 -685.47,-640.76 -566.26,-2354.42 149.02,-2041.49 670.57,-3337.91 -372.53,-3337.91 -938.78,0 -1981.87,432.14 -2160.69,804.68 -149.01,283.12 -14.9,536.45 253.32,864.28 417.24,521.54 417.24,1266.61 238.43,2071.29z"/>
   <path class="fil0" d="M29366.08 10245.72c-387.44,0 -938.79,-561.29 -938.79,-2386.71l0 -695.39c0,-1646.61 536.45,-2178.09 938.79,-2178.09 566.25,0 1043.09,1020.75 998.39,2697.15 -29.8,1557.19 -432.14,2563.04 -998.39,2563.04zm-1698.76 59.6c89.41,-131.63 193.72,-206.13 312.93,-206.13 104.31,0 208.62,44.7 327.83,131.62 372.54,387.44 879.18,610.96 1505.04,610.96 1683.84,0 2995.17,-1395.76 2995.17,-3293.2 0,-1763.33 -1117.61,-3323.01 -2697.14,-3323.01 -461.95,0 -894.09,134.11 -1162.31,357.63 -74.51,59.61 -149.01,104.31 -193.72,104.31 -119.21,0 -163.91,-223.52 -104.31,-804.67 193.72,-1370.93 327.83,-2235.21 -596.05,-2235.21 -1072.9,0 -2145.79,298.03 -2503.42,804.68 -253.33,372.53 -29.8,610.95 268.22,1043.09 447.04,640.76 596.06,1519.94 596.06,2779.11 0,1599.41 -119.21,2518.33 -610.96,3275.82 -238.42,384.95 -193.72,725.2 29.8,918.92 283.13,238.42 566.26,357.63 983.48,357.63 327.83,0 625.86,-149.02 849.38,-521.55z"/>
   <path id="_1_3" class="fil1 str0" d="M29366.08 10245.72c-387.44,0 -938.79,-561.29 -938.79,-2386.71l0 -695.39c0,-1646.61 536.45,-2178.09 938.79,-2178.09 566.25,0 1043.09,1020.75 998.39,2697.15 -29.8,1557.19 -432.14,2563.04 -998.39,2563.04zm-1698.76 59.6c89.41,-131.63 193.72,-206.13 312.93,-206.13 104.31,0 208.62,44.7 327.83,131.62 372.54,387.44 879.18,610.96 1505.04,610.96 1683.84,0 2995.17,-1395.76 2995.17,-3293.2 0,-1763.33 -1117.61,-3323.01 -2697.14,-3323.01 -461.95,0 -894.09,134.11 -1162.31,357.63 -74.51,59.61 -149.01,104.31 -193.72,104.31 -119.21,0 -163.91,-223.52 -104.31,-804.67 193.72,-1370.93 327.83,-2235.21 -596.05,-2235.21 -1072.9,0 -2145.79,298.03 -2503.42,804.68 -253.33,372.53 -29.8,610.95 268.22,1043.09 447.04,640.76 596.06,1519.94 596.06,2779.11 0,1599.41 -119.21,2518.33 -610.96,3275.82 -238.42,384.95 -193.72,725.2 29.8,918.92 283.13,238.42 566.26,357.63 983.48,357.63 327.83,0 625.86,-149.02 849.38,-521.55z"/>
   <path class="fil0" d="M36052.69 8010.51c0,864.28 -372.53,1683.85 -864.27,1683.85 -685.47,0 -1266.61,-774.87 -1251.71,-2309.71 29.8,-2041.49 685.45,-3144.19 -357.63,-3144.19 -938.79,0 -1981.88,432.14 -2160.7,804.68 -149.02,283.12 -14.9,536.45 253.32,864.28 417.24,521.54 461.94,1683.85 491.75,2518.33 74.5,1788.16 1326.22,2707.08 2786.54,2339.51 536.45,-134.11 879.18,-402.33 1117.61,-804.67l0 581.15c0,856.83 -432.14,1296.42 -1385.83,1296.42 -1490.13,0 -2145.79,-1266.61 -2846.15,-807.16 -908.99,573.71 -298.03,2118.48 1728.56,2118.48 1341.11,0 2175.59,-491.74 2875.95,-1102.7 1058,-913.95 1579.55,-2428.92 1594.45,-4068.07l29.8 -2861.07c14.9,-730.16 -327.83,-879.18 -953.69,-879.18 -894.08,0 -1847.77,536.45 -1996.78,834.48 -178.82,357.63 14.9,536.45 268.22,864.28 536.45,670.56 670.56,1147.4 670.56,2071.29z"/>
   <path id="_1_4" class="fil1 str0" d="M36052.69 8010.51c0,864.28 -372.53,1683.85 -864.27,1683.85 -685.47,0 -1266.61,-774.87 -1251.71,-2309.71 29.8,-2041.49 685.45,-3144.19 -357.63,-3144.19 -938.79,0 -1981.88,432.14 -2160.7,804.68 -149.02,283.12 -14.9,536.45 253.32,864.28 417.24,521.54 461.94,1683.85 491.75,2518.33 74.5,1788.16 1326.22,2707.08 2786.54,2339.51 536.45,-134.11 879.18,-402.33 1117.61,-804.67l0 581.15c0,856.83 -432.14,1296.42 -1385.83,1296.42 -1490.13,0 -2145.79,-1266.61 -2846.15,-807.16 -908.99,573.71 -298.03,2118.48 1728.56,2118.48 1341.11,0 2175.59,-491.74 2875.95,-1102.7 1058,-913.95 1579.55,-2428.92 1594.45,-4068.07l29.8 -2861.07c14.9,-730.16 -327.83,-879.18 -953.69,-879.18 -894.08,0 -1847.77,536.45 -1996.78,834.48 -178.82,357.63 14.9,536.45 268.22,864.28 536.45,670.56 670.56,1147.4 670.56,2071.29z"/>
  </g>
 </g>
</svg>
